<?xml version="1.0" encoding="utf-8"?>
<!-- Generator: Adobe Illustrator 22.0.1, SVG Export Plug-In . SVG Version: 6.00 Build 0)  -->
<svg version="1.1" id="Laag_1" xmlns="http://www.w3.org/2000/svg" xmlns:xlink="http://www.w3.org/1999/xlink" x="0px" y="0px"
	 viewBox="0 0 1024 768" style="enable-background:new 0 0 1024 768;" xml:space="preserve">
<style type="text/css">
	.st0{fill:#007BC0;}
	.st1{fill:#DE1B2C;}
</style>
<g>
	<path class="st0" d="M647.1,262.2c-5.9-26.9-19.3-51.4-38.9-71c-25-24.7-60-41.2-97.1-41.2c-10.2,0-44.1,0.2-44.1,0.2v88.6
		c0,0,31.6,0,44.1,0c22.4,0,50.2,16.7,50.2,50.1c0,30.6-0.3,61.1-0.3,91.7V419c36-14,64.1-42.4,78.2-78
		C649,316.1,651.9,284.4,647.1,262.2z"/>
</g>
<rect x="372" y="245" class="st0" width="89" height="279"/>
<rect x="467" y="530" class="st1" width="184" height="88"/>
<rect x="467" y="435" class="st1" width="88" height="89"/>
<g>
	<path class="st1" d="M467,340v89l43.5-0.1c15.6,0,30.5-2.6,44.5-7.3V340H467z"/>
</g>
<rect x="372" y="150" class="st0" width="89" height="89"/>
</svg>
