<?xml version="1.0" encoding="utf-8"?>
<!-- Generator: Adobe Illustrator 22.0.1, SVG Export Plug-In . SVG Version: 6.00 Build 0)  -->
<svg version="1.1" id="Laag_1" xmlns="http://www.w3.org/2000/svg" xmlns:xlink="http://www.w3.org/1999/xlink" x="0px" y="0px"
	 viewBox="0 0 1024 768" style="enable-background:new 0 0 1024 768;" xml:space="preserve">
<style type="text/css">
	.st0{fill:#1D3056;}
	.st1{fill:#007BC0;}
	.st2{fill:#DE1B2C;}
</style>
<rect x="278" y="150" class="st0" width="88" height="468"/>
<rect x="657" y="150" class="st0" width="88" height="468"/>
<g>
	<path class="st1" d="M647.1,262.2c-5.9-26.9-19.3-51.4-38.9-71c-25-24.7-60-41.2-97.1-41.2c-10.2,0-44.1,0.2-44.1,0.2v88.6
		c0,0,31.6,0,44.1,0c22.4,0,50.2,16.7,50.2,50.1c0,30.6-0.3,61.1-0.3,91.7V419c36-14,64.1-42.4,78.2-78
		C649,316.1,651.9,284.4,647.1,262.2z"/>
</g>
<rect x="372" y="245" class="st1" width="89" height="279"/>
<rect x="467" y="530" class="st2" width="184" height="88"/>
<rect x="467" y="435" class="st2" width="88" height="89"/>
<rect x="561" y="435" class="st0" width="90" height="89"/>
<g>
	<path class="st2" d="M467,340v89l43.5-0.1c15.6,0,30.5-2.6,44.5-7.3V340H467z"/>
</g>
<rect x="372" y="150" class="st1" width="89" height="89"/>
<rect x="372" y="530" class="st0" width="89" height="88"/>
<path class="st0" d="M511.7,245H467v89h44.7c24.3,0,44-19.4,44-44S536,245,511.7,245z"/>
<path class="st0" d="M561,426.9v2.1h90v-96.8C637,375.9,604,411,561,426.9z"/>
<path class="st0" d="M651,246.5V150h-90v1.8C604,167.7,637,202.8,651,246.5z"/>
</svg>
