<svg class="bob" font-family="arial" font-size="14" height="880" width="168" xmlns="http://www.w3.org/2000/svg">
<defs>
<marker id="triangle" markerHeight="8" markerWidth="8" orient="auto" refX="4" refY="2" viewBox="0 0 8 4">
<polygon class="fg_fill" points="0,0 0,4 8,2 0,0"/>
</marker>
<marker id="clear_triangle" markerHeight="10" markerWidth="10" orient="auto" refX="1" refY="7" viewBox="0 0 20 14">
<polygon class="bg_fill fg_stroke" points="2,2 2,12 18,7 2,2"/>
</marker>
<marker id="circle" markerHeight="5" markerWidth="5" orient="auto" refX="10" refY="10" viewBox="0 0 20 20">
<circle class="fg_fill" cx="10" cy="10" r="8"/>
</marker>
<marker id="square" markerHeight="5" markerWidth="5" orient="auto" refX="10" refY="10" viewBox="0 0 20 20">
<rect class="fg_fill" height="20" width="20" x="0" y="0"/>
</marker>
<marker id="open_circle" markerHeight="10" markerWidth="10" orient="auto" refX="10" refY="10" viewBox="0 0 20 20">
<circle class="bg_fill fg_stroke" cx="10" cy="10" r="4"/>
</marker>
<marker id="big_open_circle" markerHeight="20" markerWidth="20" orient="auto" refX="20" refY="20" viewBox="0 0 40 40">
<circle class="bg_fill fg_stroke" cx="20" cy="20" r="6"/>
</marker>
</defs>
<style type="text/css">

rect.backdrop {
    fill: white;
}

.fg_fill {
    fill: black;
}


.bg_fill {
    fill: white;
}

.fg_stroke {
    stroke: black;
    stroke-width: 2;
}

.no_fill {
    fill: none;
}

.dashed {
    stroke-dasharray: 5;
}


text{
    fill: black;
}

line, path {
    stroke-linecap: round;
    stroke-linejoin: miter;
    stroke-opacity: 1;
    fill-opacity: 1;
}




tspan.head{
    fill: none;
    stroke: none;
}
    
</style>
<rect class="backdrop" height="880" width="168" x="0" y="0"/>
<g>
<line class="fg_stroke" x1="68" x2="68" y1="44" y2="68"/>
<path class="fg_stroke no_fill" d="M 68 68 A 4 4 0 0 0 72 72"/>
<path class="fg_stroke no_fill" d="M 72 40 A 4 4 0 0 0 68 44"/>
</g>
<g>
<line class="fg_stroke" x1="68" x2="68" y1="124" y2="148"/>
<path class="fg_stroke no_fill" d="M 68 148 A 4 4 0 0 0 72 152"/>
<path class="fg_stroke no_fill" d="M 72 120 A 4 4 0 0 0 68 124"/>
</g>
<g>
<line class="fg_stroke" x1="68" x2="68" y1="204" y2="228"/>
<path class="fg_stroke no_fill" d="M 68 228 A 4 4 0 0 0 72 232"/>
<path class="fg_stroke no_fill" d="M 72 200 A 4 4 0 0 0 68 204"/>
</g>
<g>
<line class="fg_stroke" x1="68" x2="68" y1="284" y2="308"/>
<path class="fg_stroke no_fill" d="M 68 308 A 4 4 0 0 0 72 312"/>
<path class="fg_stroke no_fill" d="M 72 280 A 4 4 0 0 0 68 284"/>
</g>
<g>
<line class="fg_stroke" x1="68" x2="68" y1="364" y2="388"/>
<path class="fg_stroke no_fill" d="M 68 388 A 4 4 0 0 0 72 392"/>
<path class="fg_stroke no_fill" d="M 72 360 A 4 4 0 0 0 68 364"/>
</g>
<g>
<line class="fg_stroke" x1="68" x2="68" y1="444" y2="468"/>
<path class="fg_stroke no_fill" d="M 68 468 A 4 4 0 0 0 72 472"/>
<path class="fg_stroke no_fill" d="M 72 440 A 4 4 0 0 0 68 444"/>
</g>
<g>
<line class="fg_stroke" x1="68" x2="68" y1="524" y2="548"/>
<path class="fg_stroke no_fill" d="M 68 548 A 4 4 0 0 0 72 552"/>
<path class="fg_stroke no_fill" d="M 72 520 A 4 4 0 0 0 68 524"/>
</g>
<g>
<line class="fg_stroke" x1="68" x2="68" y1="604" y2="628"/>
<path class="fg_stroke no_fill" d="M 68 628 A 4 4 0 0 0 72 632"/>
<path class="fg_stroke no_fill" d="M 72 600 A 4 4 0 0 0 68 604"/>
</g>
<g>
<line class="fg_stroke" x1="68" x2="68" y1="684" y2="708"/>
<path class="fg_stroke no_fill" d="M 68 708 A 4 4 0 0 0 72 712"/>
<path class="fg_stroke no_fill" d="M 72 680 A 4 4 0 0 0 68 684"/>
</g>
<g>
<line class="fg_stroke" x1="68" x2="68" y1="764" y2="788"/>
<path class="fg_stroke no_fill" d="M 68 788 A 4 4 0 0 0 72 792"/>
<path class="fg_stroke no_fill" d="M 72 760 A 4 4 0 0 0 68 764"/>
</g>
<g>
<line class="fg_stroke" x1="68" x2="68" y1="844" y2="868"/>
<path class="fg_stroke no_fill" d="M 68 868 A 4 4 0 0 0 72 872"/>
<path class="fg_stroke no_fill" d="M 72 840 A 4 4 0 0 0 68 844"/>
</g>
<g>
<line class="fg_stroke" x1="72" x2="128" y1="40" y2="40"/>
<path class="fg_stroke no_fill" d="M 132 44 A 4 4 0 0 0 128 40"/>
</g>
<g>
<line class="fg_stroke" x1="72" x2="100" y1="72" y2="72"/>
<line class="fg_stroke" marker-end="url(#triangle)" x1="100" x2="100" y1="72" y2="108"/>
<line class="fg_stroke" x1="100" x2="128" y1="72" y2="72"/>
<path class="fg_stroke no_fill" d="M 128 72 A 4 4 0 0 0 132 68"/>
</g>
<g>
<line class="fg_stroke" x1="72" x2="128" y1="120" y2="120"/>
<path class="fg_stroke no_fill" d="M 132 124 A 4 4 0 0 0 128 120"/>
</g>
<g>
<line class="fg_stroke" x1="72" x2="100" y1="152" y2="152"/>
<line class="fg_stroke" marker-end="url(#triangle)" x1="100" x2="100" y1="152" y2="188"/>
<line class="fg_stroke" x1="100" x2="128" y1="152" y2="152"/>
<path class="fg_stroke no_fill" d="M 128 152 A 4 4 0 0 0 132 148"/>
</g>
<g>
<line class="fg_stroke" x1="72" x2="128" y1="200" y2="200"/>
<path class="fg_stroke no_fill" d="M 132 204 A 4 4 0 0 0 128 200"/>
</g>
<g>
<line class="fg_stroke" x1="72" x2="100" y1="232" y2="232"/>
<line class="fg_stroke" marker-end="url(#triangle)" x1="100" x2="100" y1="232" y2="268"/>
<line class="fg_stroke" x1="100" x2="128" y1="232" y2="232"/>
<path class="fg_stroke no_fill" d="M 128 232 A 4 4 0 0 0 132 228"/>
</g>
<g>
<line class="fg_stroke" x1="72" x2="128" y1="280" y2="280"/>
<path class="fg_stroke no_fill" d="M 132 284 A 4 4 0 0 0 128 280"/>
</g>
<g>
<line class="fg_stroke" x1="72" x2="100" y1="312" y2="312"/>
<line class="fg_stroke" marker-end="url(#triangle)" x1="100" x2="100" y1="312" y2="348"/>
<line class="fg_stroke" x1="100" x2="128" y1="312" y2="312"/>
<path class="fg_stroke no_fill" d="M 128 312 A 4 4 0 0 0 132 308"/>
</g>
<g>
<line class="fg_stroke" x1="72" x2="128" y1="360" y2="360"/>
<path class="fg_stroke no_fill" d="M 132 364 A 4 4 0 0 0 128 360"/>
</g>
<g>
<line class="fg_stroke" x1="72" x2="100" y1="392" y2="392"/>
<line class="fg_stroke" marker-end="url(#triangle)" x1="100" x2="100" y1="392" y2="428"/>
<line class="fg_stroke" x1="100" x2="128" y1="392" y2="392"/>
<path class="fg_stroke no_fill" d="M 128 392 A 4 4 0 0 0 132 388"/>
</g>
<g>
<line class="fg_stroke" x1="72" x2="136" y1="440" y2="440"/>
<path class="fg_stroke no_fill" d="M 140 444 A 4 4 0 0 0 136 440"/>
</g>
<g>
<line class="fg_stroke" x1="72" x2="100" y1="472" y2="472"/>
<line class="fg_stroke" marker-end="url(#triangle)" x1="100" x2="100" y1="472" y2="508"/>
<line class="fg_stroke" x1="100" x2="136" y1="472" y2="472"/>
<path class="fg_stroke no_fill" d="M 136 472 A 4 4 0 0 0 140 468"/>
</g>
<g>
<line class="fg_stroke" x1="72" x2="136" y1="520" y2="520"/>
<path class="fg_stroke no_fill" d="M 140 524 A 4 4 0 0 0 136 520"/>
</g>
<g>
<line class="fg_stroke" x1="72" x2="100" y1="552" y2="552"/>
<line class="fg_stroke" marker-end="url(#triangle)" x1="100" x2="100" y1="552" y2="588"/>
<line class="fg_stroke" x1="100" x2="136" y1="552" y2="552"/>
<path class="fg_stroke no_fill" d="M 136 552 A 4 4 0 0 0 140 548"/>
</g>
<g>
<line class="fg_stroke" x1="72" x2="136" y1="600" y2="600"/>
<path class="fg_stroke no_fill" d="M 140 604 A 4 4 0 0 0 136 600"/>
</g>
<g>
<line class="fg_stroke" x1="72" x2="100" y1="632" y2="632"/>
<line class="fg_stroke" marker-end="url(#triangle)" x1="100" x2="100" y1="632" y2="668"/>
<line class="fg_stroke" x1="100" x2="136" y1="632" y2="632"/>
<path class="fg_stroke no_fill" d="M 136 632 A 4 4 0 0 0 140 628"/>
</g>
<g>
<line class="fg_stroke" x1="72" x2="136" y1="680" y2="680"/>
<path class="fg_stroke no_fill" d="M 140 684 A 4 4 0 0 0 136 680"/>
</g>
<g>
<line class="fg_stroke" x1="72" x2="100" y1="712" y2="712"/>
<line class="fg_stroke" marker-end="url(#triangle)" x1="100" x2="100" y1="712" y2="748"/>
<line class="fg_stroke" x1="100" x2="136" y1="712" y2="712"/>
<path class="fg_stroke no_fill" d="M 136 712 A 4 4 0 0 0 140 708"/>
</g>
<g>
<line class="fg_stroke" x1="72" x2="136" y1="760" y2="760"/>
<path class="fg_stroke no_fill" d="M 140 764 A 4 4 0 0 0 136 760"/>
</g>
<g>
<line class="fg_stroke" x1="72" x2="100" y1="792" y2="792"/>
<line class="fg_stroke" marker-end="url(#triangle)" x1="100" x2="100" y1="792" y2="828"/>
<line class="fg_stroke" x1="100" x2="136" y1="792" y2="792"/>
<path class="fg_stroke no_fill" d="M 136 792 A 4 4 0 0 0 140 788"/>
</g>
<g>
<line class="fg_stroke" x1="72" x2="136" y1="840" y2="840"/>
<path class="fg_stroke no_fill" d="M 140 844 A 4 4 0 0 0 136 840"/>
</g>
<g>
<line class="fg_stroke" x1="72" x2="136" y1="872" y2="872"/>
<path class="fg_stroke no_fill" d="M 136 872 A 4 4 0 0 0 140 868"/>
</g>
<g>
<line class="fg_stroke" x1="132" x2="132" y1="44" y2="68"/>
</g>
<g>
<line class="fg_stroke" x1="132" x2="132" y1="124" y2="148"/>
</g>
<g>
<line class="fg_stroke" x1="132" x2="132" y1="204" y2="228"/>
</g>
<g>
<line class="fg_stroke" x1="132" x2="132" y1="284" y2="308"/>
</g>
<g>
<line class="fg_stroke" x1="132" x2="132" y1="364" y2="388"/>
</g>
<g>
<line class="fg_stroke" x1="140" x2="140" y1="444" y2="468"/>
</g>
<g>
<line class="fg_stroke" x1="140" x2="140" y1="524" y2="548"/>
</g>
<g>
<line class="fg_stroke" x1="140" x2="140" y1="604" y2="616"/>
<line class="fg_stroke" x1="140" x2="140" y1="616" y2="628"/>
<line class="fg_stroke" x1="140" x2="160" y1="616" y2="616"/>
<path class="fg_stroke no_fill" d="M 160 616 A 4 4 0 0 0 164 612"/>
</g>
<g>
<line class="fg_stroke" x1="140" x2="140" y1="684" y2="708"/>
</g>
<g>
<line class="fg_stroke" x1="140" x2="140" y1="764" y2="788"/>
</g>
<g>
<line class="fg_stroke" x1="140" x2="140" y1="844" y2="868"/>
</g>
<g>
<line class="fg_stroke" marker-end="url(#triangle)" x1="152" x2="148" y1="456" y2="456"/>
<line class="fg_stroke" x1="152" x2="160" y1="456" y2="456"/>
<path class="fg_stroke no_fill" d="M 164 460 A 4 4 0 0 0 160 456"/>
</g>
<g>
<line class="fg_stroke" x1="164" x2="164" y1="460" y2="612"/>
</g>
<g>
<text class="fg_fill" x="57" y="44">
 
</text>
</g>
<g>
<text class="fg_fill" x="57" y="140">
 
</text>
</g>
<g>
<text class="fg_fill" x="81" y="60">
c:=r3
</text>
</g>
<g>
<text class="fg_fill" x="81" y="140">
a:=r1
</text>
</g>
<g>
<text class="fg_fill" x="81" y="220">
b:=r2
</text>
</g>
<g>
<text class="fg_fill" x="81" y="300">
d:=0
</text>
</g>
<g>
<text class="fg_fill" x="81" y="380">
e:=a
</text>
</g>
<g>
<text class="fg_fill" x="81" y="460">
d:=d+b
</text>
</g>
<g>
<text class="fg_fill" x="81" y="540">
e:=e-1
</text>
</g>
<g>
<text class="fg_fill" x="81" y="860">
return
</text>
</g>
<g>
<text class="fg_fill" x="89" y="620">
e&gt;
</text>
</g>
<g>
<text class="fg_fill" x="89" y="700">
r1:=d
</text>
</g>
<g>
<text class="fg_fill" x="89" y="780">
r3:=c
</text>
</g>
<g>
<text class="fg_fill" x="105" y="620">
0
</text>
</g>
</svg>