<svg class="bob" font-family="arial" font-size="14" height="368" width="168" xmlns="http://www.w3.org/2000/svg">
<defs>
<marker id="triangle" markerHeight="8" markerWidth="8" orient="auto" refX="4" refY="2" viewBox="0 0 8 4">
<polygon class="fg_fill" points="0,0 0,4 8,2 0,0"/>
</marker>
<marker id="clear_triangle" markerHeight="10" markerWidth="10" orient="auto" refX="1" refY="7" viewBox="0 0 20 14">
<polygon class="bg_fill fg_stroke" points="2,2 2,12 18,7 2,2"/>
</marker>
<marker id="circle" markerHeight="5" markerWidth="5" orient="auto" refX="10" refY="10" viewBox="0 0 20 20">
<circle class="fg_fill" cx="10" cy="10" r="8"/>
</marker>
<marker id="square" markerHeight="5" markerWidth="5" orient="auto" refX="10" refY="10" viewBox="0 0 20 20">
<rect class="fg_fill" height="20" width="20" x="0" y="0"/>
</marker>
<marker id="open_circle" markerHeight="10" markerWidth="10" orient="auto" refX="10" refY="10" viewBox="0 0 20 20">
<circle class="bg_fill fg_stroke" cx="10" cy="10" r="4"/>
</marker>
<marker id="big_open_circle" markerHeight="20" markerWidth="20" orient="auto" refX="20" refY="20" viewBox="0 0 40 40">
<circle class="bg_fill fg_stroke" cx="20" cy="20" r="6"/>
</marker>
</defs>
<style type="text/css">

rect.backdrop {
    fill: white;
}

.fg_fill {
    fill: black;
}


.bg_fill {
    fill: white;
}

.fg_stroke {
    stroke: black;
    stroke-width: 2;
}

.no_fill {
    fill: none;
}

.dashed {
    stroke-dasharray: 5;
}


text{
    fill: black;
}

line, path {
    stroke-linecap: round;
    stroke-linejoin: miter;
    stroke-opacity: 1;
    fill-opacity: 1;
}




tspan.head{
    fill: none;
    stroke: none;
}
    
</style>
<rect class="backdrop" height="368" width="168" x="0" y="0"/>
<g>
<line class="fg_stroke" x1="68" x2="68" y1="44" y2="132"/>
<path class="fg_stroke no_fill" d="M 68 132 A 4 4 0 0 0 72 136"/>
<path class="fg_stroke no_fill" d="M 72 40 A 4 4 0 0 0 68 44"/>
</g>
<g>
<line class="fg_stroke" x1="68" x2="68" y1="188" y2="244"/>
<path class="fg_stroke no_fill" d="M 68 244 A 4 4 0 0 0 72 248"/>
<path class="fg_stroke no_fill" d="M 72 184 A 4 4 0 0 0 68 188"/>
</g>
<g>
<line class="fg_stroke" x1="68" x2="68" y1="300" y2="356"/>
<path class="fg_stroke no_fill" d="M 68 356 A 4 4 0 0 0 72 360"/>
<path class="fg_stroke no_fill" d="M 72 296 A 4 4 0 0 0 68 300"/>
</g>
<g>
<line class="fg_stroke" x1="72" x2="136" y1="40" y2="40"/>
<path class="fg_stroke no_fill" d="M 140 44 A 4 4 0 0 0 136 40"/>
</g>
<g>
<line class="fg_stroke" x1="72" x2="100" y1="136" y2="136"/>
<line class="fg_stroke" marker-end="url(#triangle)" x1="100" x2="100" y1="136" y2="172"/>
<line class="fg_stroke" x1="100" x2="136" y1="136" y2="136"/>
<path class="fg_stroke no_fill" d="M 136 136 A 4 4 0 0 0 140 132"/>
</g>
<g>
<line class="fg_stroke" x1="72" x2="136" y1="184" y2="184"/>
<path class="fg_stroke no_fill" d="M 140 188 A 4 4 0 0 0 136 184"/>
</g>
<g>
<line class="fg_stroke" x1="72" x2="100" y1="248" y2="248"/>
<line class="fg_stroke" marker-end="url(#triangle)" x1="100" x2="100" y1="248" y2="284"/>
<line class="fg_stroke" x1="100" x2="124" y1="248" y2="248"/>
<line class="fg_stroke" x1="124" x2="124" y1="248" y2="260"/>
<line class="fg_stroke" x1="124" x2="136" y1="248" y2="248"/>
<path class="fg_stroke no_fill" d="M 124 260 A 4 4 0 0 0 128 264"/>
<path class="fg_stroke no_fill" d="M 136 248 A 4 4 0 0 0 140 244"/>
</g>
<g>
<line class="fg_stroke" x1="72" x2="136" y1="296" y2="296"/>
<path class="fg_stroke no_fill" d="M 140 300 A 4 4 0 0 0 136 296"/>
</g>
<g>
<line class="fg_stroke" x1="72" x2="136" y1="360" y2="360"/>
<path class="fg_stroke no_fill" d="M 136 360 A 4 4 0 0 0 140 356"/>
</g>
<g>
<line class="fg_stroke" marker-end="url(#triangle)" x1="124" x2="124" y1="156" y2="172"/>
<path class="fg_stroke no_fill" d="M 128 152 A 4 4 0 0 0 124 156"/>
</g>
<g>
<line class="fg_stroke" x1="128" x2="160" y1="152" y2="152"/>
<path class="fg_stroke no_fill" d="M 164 156 A 4 4 0 0 0 160 152"/>
</g>
<g>
<line class="fg_stroke" x1="128" x2="160" y1="264" y2="264"/>
<path class="fg_stroke no_fill" d="M 160 264 A 4 4 0 0 0 164 260"/>
</g>
<g>
<line class="fg_stroke" x1="140" x2="140" y1="44" y2="132"/>
</g>
<g>
<line class="fg_stroke" x1="140" x2="140" y1="188" y2="244"/>
</g>
<g>
<line class="fg_stroke" x1="140" x2="140" y1="300" y2="356"/>
</g>
<g>
<line class="fg_stroke" x1="164" x2="164" y1="156" y2="260"/>
</g>
<g>
<text class="fg_fill" x="57" y="44">
 
</text>
</g>
<g>
<text class="fg_fill" x="57" y="76">
 
</text>
</g>
<g>
<text class="fg_fill" x="81" y="60">
c:=r3
</text>
</g>
<g>
<text class="fg_fill" x="81" y="92">
b:=r2
</text>
</g>
<g>
<text class="fg_fill" x="81" y="124">
e:=a
</text>
</g>
<g>
<text class="fg_fill" x="81" y="204">
d:=d+b
</text>
</g>
<g>
<text class="fg_fill" x="81" y="316">
r1:=d
</text>
</g>
<g>
<text class="fg_fill" x="81" y="348">
return
</text>
</g>
<g>
<text class="fg_fill" x="81" y="76">
a:=r1
</text>
</g>
<g>
<text class="fg_fill" x="81" y="108">
d:=0
</text>
</g>
<g>
<text class="fg_fill" x="81" y="220">
e:=e-1
</text>
</g>
<g>
<text class="fg_fill" x="81" y="236">
e&gt;0
</text>
</g>
<g>
<text class="fg_fill" x="81" y="332">
r3:=c
</text>
</g>
</svg>