<?xml version="1.0" encoding="utf-8"?>
<!-- Generator: Adobe Illustrator 23.0.4, SVG Export Plug-In . SVG Version: 6.00 Build 0)  -->
<svg version="1.1" xmlns="http://www.w3.org/2000/svg" xmlns:xlink="http://www.w3.org/1999/xlink" x="0px" y="0px"
	 viewBox="0 0 570.2 570.2" style="enable-background:new 0 0 570.2 570.2;" xml:space="preserve">
<style type="text/css">
	.st0{fill:#FFFFFF;}
	.st1{fill:#892164;}
</style>
<g id="Layer_1">
	<g>
		<path class="st0" d="M311.1,558.2c-8.2,0-16.9-0.1-25.8-0.2H285c-8.9,0.1-17.6,0.2-25.8,0.2c-46.5,0-80.9-1.7-102.2-5.2
			c-34.6-5.6-65.8-22.4-90.5-48.7l-0.3-0.3l-0.3-0.3c-26.3-24.6-43.2-55.9-48.7-90.5c-4.1-25.2-5.7-68.2-5-127.7l0.1-12.1h-0.3
			c-0.4-53.7,1.3-92.9,5.1-116.5c5.6-34.6,22.4-65.8,48.7-90.5l0.3-0.3l0.3-0.3c24.6-26.3,55.9-43.2,90.5-48.7
			c21.4-3.4,55.8-5.2,102.2-5.2c8.2,0,16.9,0.1,25.8,0.2h0.3c8.9-0.1,17.6-0.2,25.8-0.2c46.5,0,80.9,1.7,102.2,5.2
			c34.6,5.6,65.8,22.4,90.5,48.7l0.3,0.3l0.3,0.3c26.3,24.6,43.2,55.9,48.7,90.5c4.1,25.2,5.7,68.2,5,127.7l-0.1,12.1h0.3
			c0.4,53.7-1.3,92.9-5.1,116.5c-5.6,34.5-22.4,65.8-48.7,90.5L504,504l-0.3,0.3c-24.6,26.3-55.9,43.2-90.5,48.7
			C391.9,556.5,357.5,558.2,311.1,558.2C311.1,558.2,311.1,558.2,311.1,558.2z"/>
		<path d="M311,24c45.8,0,79.6,1.7,100.3,5c31.9,5.1,60.8,20.7,83.6,45.1l0.5,0.6l0.6,0.5c24.4,22.8,39.9,51.7,45.1,83.6
			c3.9,24.2,5.6,67.7,4.9,125.7l-0.3,24.3h0.5c0,46.5-1.7,81.7-5,102.6c-5.1,31.9-20.7,60.8-45.1,83.6l-0.6,0.5l-0.5,0.6
			c-22.8,24.4-51.7,39.9-83.6,45.1c-20.7,3.3-54.5,5-100.3,5c-8.2,0-16.8-0.1-25.7-0.2l-0.3,0l-0.3,0c-8.9,0.1-17.5,0.2-25.7,0.2
			c-45.8,0-79.6-1.7-100.3-5c-31.9-5.1-60.8-20.7-83.6-45.1l-0.5-0.6l-0.6-0.5c-24.4-22.8-39.9-51.7-45.1-83.6
			c-3.9-24.2-5.6-67.7-4.9-125.7l0.3-24.3H24c0-46.5,1.7-81.7,5-102.6c5.1-31.9,20.7-60.8,45.1-83.6l0.6-0.5l0.5-0.6
			C98,49.7,126.9,34.2,158.8,29c20.7-3.3,54.5-5,100.3-5c8.2,0,16.8,0.1,25.7,0.2l0.3,0l0.3,0C294.3,24.1,302.9,24,311,24L311,24
			 M311,0c-8.6,0-17.3,0.1-26,0.2c-8.7-0.1-17.3-0.2-26-0.2C218.6,0,179.9,1.3,155,5.3c-38.6,6.2-72.2,25.5-97.3,52.4
			C30.9,82.8,11.5,116.4,5.3,155c-4.9,30.2-5.8,80.8-5.2,130.4h0c-0.6,49.4,0.3,99.7,5.2,129.8c6.2,38.6,25.5,72.2,52.4,97.3
			c25.1,26.8,58.7,46.2,97.3,52.4c24.9,4,63.6,5.3,104.1,5.3c8.6,0,17.3-0.1,25.9-0.2c8.7,0.1,17.3,0.2,26,0.2
			c40.6,0,79.3-1.3,104.1-5.3c38.6-6.2,72.2-25.5,97.3-52.4c26.8-25.1,46.2-58.7,52.4-97.3c4.9-30.2,5.8-80.8,5.2-130.4h0
			c0.6-49.4-0.3-99.7-5.2-129.8c-6.2-38.6-25.5-72.2-52.4-97.3c-25.1-26.8-58.7-46.2-97.3-52.4C390.3,1.3,351.6,0,311,0L311,0z"/>
	</g>
	<path d="M430.5,509.8c-8.6,0-17.2,0.2-25.9,0.5v-4.7l8.8-0.5c8.5-0.5,10.2-2.2,10.2-10.3v-76c0-3.8-0.3-5.2-1.3-5.2l-0.5,0.2
		l-20.2,9.1h-1.6l-1.1-6.7c14.3-5,25.4-9.7,35.6-15l2.2,0.8v92.9c0,8.1,1.6,9.9,10.2,10.3l8.1,0.5v4.7
		C447,510,438.7,509.8,430.5,509.8z"/>
	<path class="st1" d="M256.5,445.7c-30.2,0-55.8-4.6-90-15.8c5.3-26.3,7.2-46,7.2-91.3h19.7v26.9c0,32.8,34.2,55.8,82.1,55.8
		c46.6,0,79.5-25,79.5-60.4c0-25-12.5-38.8-42-45.3c-44.7-9.9-79.5-20.4-97.2-28.2c-30.2-13.8-44.7-36.1-44.7-67.7
		c0-59.1,46.6-95.3,122.8-95.3c26.9,0,50.6,4.6,85.4,16.4c-2,20.4-2.6,36.1-3.3,74.2h-18.4V200c0-30.9-33.5-53.9-77.5-53.9
		c-40.1,0-63.1,18.4-63.1,51.2c0,30.2,17.7,43.4,71.6,53.9c57.8,11.2,79.5,18.4,96.6,35.5c13.1,13.1,18.4,28.2,18.4,48.6
		C403.7,399.7,342.6,445.7,256.5,445.7z"/>
</g>
<g id="Layer_2">
</g>
</svg>
